<?xml version="1.0" encoding="UTF-8"?>
<svg id="Layer_2" data-name="Layer 2" xmlns="http://www.w3.org/2000/svg" xmlns:xlink="http://www.w3.org/1999/xlink" viewBox="0 0 63.17 50">
  <defs>
    <style>
      .cls-1 {
        fill: url(#linear-gradient-12);
      }

      .cls-1, .cls-2, .cls-3, .cls-4, .cls-5, .cls-6, .cls-7, .cls-8, .cls-9, .cls-10, .cls-11, .cls-12, .cls-13, .cls-14, .cls-15, .cls-16, .cls-17 {
        stroke-width: 0px;
      }

      .cls-2 {
        fill: url(#linear-gradient-17);
      }

      .cls-3 {
        fill: url(#linear-gradient);
      }

      .cls-4 {
        fill: url(#linear-gradient-6);
      }

      .cls-5 {
        fill: url(#linear-gradient-15);
      }

      .cls-6 {
        fill: url(#linear-gradient-11);
      }

      .cls-7 {
        fill: url(#linear-gradient-5);
      }

      .cls-18 {
        filter: url(#outer-glow-1);
      }

      .cls-8 {
        fill: url(#linear-gradient-13);
      }

      .cls-9 {
        fill: url(#linear-gradient-16);
      }

      .cls-10 {
        fill: url(#linear-gradient-14);
      }

      .cls-11 {
        fill: url(#linear-gradient-2);
      }

      .cls-12 {
        fill: url(#linear-gradient-7);
      }

      .cls-13 {
        fill: url(#linear-gradient-3);
      }

      .cls-14 {
        fill: url(#linear-gradient-9);
      }

      .cls-15 {
        fill: url(#linear-gradient-8);
      }

      .cls-16 {
        fill: url(#linear-gradient-10);
      }

      .cls-17 {
        fill: url(#linear-gradient-4);
      }
    </style>
    <filter id="outer-glow-1" filterUnits="userSpaceOnUse">
      <feOffset dx="0" dy="0"/>
      <feGaussianBlur result="blur" stdDeviation="1"/>
      <feFlood flood-color="#231f20" flood-opacity=".75"/>
      <feComposite in2="blur" operator="in"/>
      <feComposite in="SourceGraphic"/>
    </filter>
    <linearGradient id="linear-gradient" x1="17.54" y1="69.83" x2="17.54" y2="5.7" gradientUnits="userSpaceOnUse">
      <stop offset="0" stop-color="#fdebf3"/>
      <stop offset=".11" stop-color="#f7eaf3"/>
      <stop offset=".23" stop-color="#f9f0f1"/>
      <stop offset=".35" stop-color="#fffef0"/>
      <stop offset=".48" stop-color="#fbfbf0"/>
      <stop offset=".6" stop-color="#eff2f1"/>
      <stop offset=".71" stop-color="#dce4f3"/>
      <stop offset=".71" stop-color="#dce4f4"/>
      <stop offset="1" stop-color="#fee9df"/>
    </linearGradient>
    <linearGradient id="linear-gradient-2" x1="45.44" x2="45.44" y2="5.7" xlink:href="#linear-gradient"/>
    <linearGradient id="linear-gradient-3" x1="39.1" y1="69.83" x2="39.1" y2="5.7" xlink:href="#linear-gradient"/>
    <linearGradient id="linear-gradient-4" x1="39.1" y1="69.83" x2="39.1" y2="5.7" xlink:href="#linear-gradient"/>
    <linearGradient id="linear-gradient-5" x1="23.88" x2="23.88" y2="5.7" xlink:href="#linear-gradient"/>
    <linearGradient id="linear-gradient-6" x1="23.88" y1="69.83" x2="23.88" y2="5.7" xlink:href="#linear-gradient"/>
    <linearGradient id="linear-gradient-7" x1="2.14" x2="2.14" y2="5.7" xlink:href="#linear-gradient"/>
    <linearGradient id="linear-gradient-8" x1="7.34" y1="69.83" x2="7.34" y2="5.7" xlink:href="#linear-gradient"/>
    <linearGradient id="linear-gradient-9" x1="12.97" y1="69.83" x2="12.97" y2="5.7" xlink:href="#linear-gradient"/>
    <linearGradient id="linear-gradient-10" x1="18.33" y1="69.83" x2="18.33" y2="5.7" xlink:href="#linear-gradient"/>
    <linearGradient id="linear-gradient-11" x1="23.47" y1="69.83" x2="23.47" y2="5.7" xlink:href="#linear-gradient"/>
    <linearGradient id="linear-gradient-12" x1="29.19" y1="69.83" x2="29.19" y2="5.7" xlink:href="#linear-gradient"/>
    <linearGradient id="linear-gradient-13" x1="37.53" y1="69.83" x2="37.53" y2="5.7" xlink:href="#linear-gradient"/>
    <linearGradient id="linear-gradient-14" x1="43.11" x2="43.11" y2="5.7" xlink:href="#linear-gradient"/>
    <linearGradient id="linear-gradient-15" x1="48.65" y1="69.83" x2="48.65" y2="5.7" xlink:href="#linear-gradient"/>
    <linearGradient id="linear-gradient-16" x1="54.1" y1="69.83" x2="54.1" y2="5.7" xlink:href="#linear-gradient"/>
    <linearGradient id="linear-gradient-17" x1="60.14" y1="69.83" x2="60.14" y2="5.7" xlink:href="#linear-gradient"/>
  </defs>
  <g id="Layer_1-2" data-name="Layer 1">
    <g id="Layer_1-2" data-name="Layer 1-2" class="cls-18">
      <g>
        <path class="cls-3" d="m22.61,32.96c-2.1,0-3.8-1.71-3.8-3.8v-4.54l2.9,2.91c.25.25.57.37.9.37s.65-.12.9-.37c.49-.49.49-1.3,0-1.79l-5.07-5.07c-.49-.49-1.3-.49-1.79,0l-5.07,5.07c-.49.49-.49,1.3,0,1.79s1.3.49,1.79,0l2.9-2.91v4.54c0,3.5,2.84,6.34,6.34,6.34.7,0,1.27-.57,1.27-1.27s-.57-1.27-1.27-1.27h.01Z"/>
        <path class="cls-11" d="m51.4,13.05c-.49-.49-1.3-.49-1.79,0l-2.91,2.9v-4.54c0-3.49-2.84-6.34-6.34-6.34-.7,0-1.27.57-1.27,1.27s.57,1.27,1.27,1.27c2.1,0,3.8,1.71,3.8,3.8v4.54l-2.9-2.91c-.49-.49-1.3-.49-1.79,0s-.49,1.3,0,1.79l5.07,5.07c.25.25.57.37.9.37s.65-.12.9-.37l5.07-5.07c.49-.49.49-1.3,0-1.79h0Z"/>
        <path class="cls-13" d="m50.5,22.82h-22.82c-.7,0-1.27.57-1.27,1.27v15.21c0,.7.57,1.27,1.27,1.27h22.82c.7,0,1.27-.57,1.27-1.27v-15.21c0-.7-.57-1.27-1.27-1.27Zm-6.21,15.21h-10.4c-.5-2.48-2.46-4.44-4.94-4.94v-2.79c2.48-.5,4.44-2.46,4.94-4.94h10.4c.5,2.48,2.46,4.44,4.94,4.94v2.8h0c-2.48.5-4.44,2.46-4.94,4.94h0Z"/>
        <circle class="cls-17" cx="39.1" cy="31.69" r="2.53"/>
        <path class="cls-7" d="m35.29,0H12.48c-.7,0-1.27.57-1.27,1.27v15.21c0,.7.57,1.27,1.27,1.27h22.82c.7,0,1.27-.57,1.27-1.27V1.27c0-.7-.57-1.27-1.27-1.27Zm-1.27,10.27c-2.48.5-4.44,2.46-4.94,4.94h-10.4c-.5-2.48-2.46-4.44-4.94-4.94v-2.8c2.48-.5,4.44-2.46,4.94-4.94h10.4c.5,2.48,2.46,4.44,4.94,4.94v2.79h0Z"/>
        <circle class="cls-4" cx="23.88" cy="8.88" r="2.53"/>
      </g>
      <g>
        <path class="cls-12" d="m4.16,46.06h-1.42l-.09-.54c-.02-.13-.05-.21-.1-.24s-.14-.04-.31-.04c-.2,0-.33.05-.4.16-.03.06-.05.21-.05.43v2.19c0,.3.05.48.16.56.07.05.23.08.47.08.13,0,.23-.11.26-.32l.12-.65h1.44l-.16,2.29H1.71c-.3,0-.5-.02-.6-.06-.13-.05-.33-.21-.59-.47-.24-.24-.39-.42-.45-.56-.04-.11-.06-.32-.06-.61v-2.81c0-.22.03-.39.09-.52s.21-.31.46-.55.42-.38.52-.42.3-.07.57-.07h2.4l.13,2.14h-.01Z"/>
        <path class="cls-15" d="m7.85,43.93h2.12v1.33h-.29v3.42h.29v1.32h-2.12v-2.46h-1.02v2.46h-2.12v-1.32h.3v-3.42h-.3v-1.33h2.12v2.27h1.02v-2.27Z"/>
        <path class="cls-14" d="m13.48,43.93h2.12v1.33h-.29v2.92c0,.33-.02.55-.06.66-.06.17-.2.36-.44.59-.27.26-.48.42-.64.49-.11.04-.32.06-.6.06h-1.21c-.27,0-.45-.01-.53-.03-.15-.05-.34-.18-.59-.39-.21-.19-.36-.35-.45-.48-.08-.11-.13-.21-.14-.3s-.02-.26-.02-.53v-3h-.3v-1.33h2.14v4.28c0,.32.17.47.5.47.23,0,.37-.06.43-.2.05-.08.07-.25.07-.49v-4.06h.01Z"/>
        <path class="cls-16" d="m19.03,43.93h1.8v1.33h-.31l-1.27,2.75v.67h.3v1.32h-2.41v-1.32h.3v-.67l-1.29-2.75h-.31v-1.33h1.8l.71,2.61.69-2.61Z"/>
        <path class="cls-6" d="m21.15,43.93h4.35l.14,1.99h-1.44l-.08-.42c-.03-.11-.05-.19-.09-.23s-.11-.05-.23-.05h-.57v1.12h1.43v1.13h-1.43v1.26h.63c.11,0,.19-.02.23-.05s.07-.11.09-.22l.11-.53h1.49l-.14,2.07h-4.5v-1.32h.3v-3.42h-.3v-1.33h0Zm2.16-1.46l1.49.56-.17.53-1.34-.45-1.34.45-.17-.53,1.52-.56Zm.98-.9l-.6.17.08-.66h.96c.16,0,.31.05.44.15s.2.2.2.3v.17c0,.06,0,.11-.01.12-.03.05-.14.13-.34.26-.09.05-.14.13-.14.23v.19h-.68v-.26c0-.09.01-.14.03-.17s.09-.09.19-.16c.04-.02.09-.06.17-.13.04-.03.05-.09.05-.2,0-.07-.09-.11-.25-.11-.06,0-.1.03-.11.1h0Z"/>
        <path class="cls-1" d="m30.45,43.93h1.77v1.33h-.3v4.74h-2.61l-1.44-4.78.1,4.78h-1.82v-1.32h.3v-3.42h-.3v-1.33h3.08l1.26,4.32-.05-4.32Z"/>
        <path class="cls-8" d="m38.24,43.93h1.75v1.33h-.36l-.7,1.29c.21.08.4.19.58.34.15.12.24.24.28.34.03.08.05.24.05.49v.96h.29v1.32h-2.1v-1.89c0-.24-.03-.39-.1-.46s-.21-.1-.44-.1h-.45v2.45h-2.12v-1.32h.3v-3.42h-.3v-1.33h2.12v2.29h.26l.94-2.29Z"/>
        <path class="cls-10" d="m43.62,43.93h2.12v1.33h-.29v3.42h.29v1.32h-2.12v-2.46h-1.02v2.46h-2.12v-1.32h.3v-3.42h-.3v-1.33h2.12v2.27h1.02v-2.27Z"/>
        <path class="cls-5" d="m48.14,43.93h1.15c.3,0,.51.02.62.06.13.05.32.2.56.44s.4.43.46.58c.04.11.06.33.06.65v2.62c0,.31-.02.52-.06.63-.05.13-.2.33-.45.56s-.43.39-.58.45c-.11.04-.32.06-.62.06h-1.39c-.25,0-.42-.03-.54-.08-.13-.06-.33-.23-.58-.49-.21-.22-.35-.4-.41-.56-.04-.12-.06-.33-.06-.62v-2.65c0-.3.02-.49.06-.6.06-.12.22-.32.48-.57.24-.24.44-.38.59-.43.12-.04.35-.06.69-.06h.01Zm1.02,4v-1.94c0-.27-.02-.45-.06-.53-.07-.13-.23-.2-.47-.2-.23,0-.38.08-.45.22-.03.05-.04.22-.04.5v1.94c0,.28.03.47.08.55.06.12.22.18.46.18.22,0,.36-.08.43-.22.03-.06.05-.24.05-.52h0Z"/>
        <path class="cls-9" d="m52.64,43.92h2.96l.89,4.75h.3v1.32h-1.93l-.2-1.32h-1.08l-.21,1.32h-1.93v-1.32h.31l.91-4.75h0Zm1.26-1.32l-.6.17.08-.66h.96c.16,0,.31.05.45.15s.2.2.2.3v.17c0,.07,0,.11-.01.13-.02.04-.13.13-.34.26-.09.05-.14.13-.14.23v.19h-.68v-.27c0-.09.01-.14.03-.17s.09-.09.19-.16c.03-.03.09-.07.17-.13.03-.03.05-.09.05-.2,0-.07-.09-.11-.25-.11-.06,0-.1.03-.11.1h0Zm-.17,4.85h.77l-.39-2.38-.39,2.38Z"/>
        <path class="cls-2" d="m61.4,43.93h1.77v1.33h-.3v4.74h-2.61l-1.44-4.78.1,4.78h-1.82v-1.32h.3v-3.42h-.3v-1.33h3.08l1.26,4.32-.05-4.32Z"/>
      </g>
    </g>
  </g>
</svg>