<?xml version="1.0" encoding="UTF-8"?>
<svg id="Layer_2" data-name="Layer 2" xmlns="http://www.w3.org/2000/svg" xmlns:xlink="http://www.w3.org/1999/xlink" viewBox="0 0 39.6 50">
  <defs>
    <style>
      .cls-1 {
        fill: url(#linear-gradient-12);
      }

      .cls-1, .cls-2, .cls-3, .cls-4, .cls-5, .cls-6, .cls-7, .cls-8, .cls-9, .cls-10, .cls-11, .cls-12, .cls-13, .cls-14, .cls-15, .cls-16, .cls-17, .cls-18 {
        stroke-width: 0px;
      }

      .cls-2 {
        fill: url(#linear-gradient-17);
      }

      .cls-3 {
        fill: url(#linear-gradient);
      }

      .cls-4 {
        fill: url(#linear-gradient-6);
      }

      .cls-5 {
        fill: url(#linear-gradient-15);
      }

      .cls-6 {
        fill: url(#linear-gradient-11);
      }

      .cls-7 {
        fill: url(#linear-gradient-5);
      }

      .cls-19 {
        filter: url(#outer-glow-1);
      }

      .cls-8 {
        fill: url(#linear-gradient-13);
      }

      .cls-9 {
        fill: url(#linear-gradient-16);
      }

      .cls-10 {
        fill: url(#linear-gradient-14);
      }

      .cls-11 {
        fill: url(#linear-gradient-2);
      }

      .cls-12 {
        fill: url(#linear-gradient-7);
      }

      .cls-13 {
        fill: url(#linear-gradient-3);
      }

      .cls-14 {
        fill: url(#linear-gradient-9);
      }

      .cls-15 {
        fill: url(#linear-gradient-8);
      }

      .cls-16 {
        fill: url(#linear-gradient-18);
      }

      .cls-17 {
        fill: url(#linear-gradient-10);
      }

      .cls-18 {
        fill: url(#linear-gradient-4);
      }
    </style>
    <filter id="outer-glow-1" filterUnits="userSpaceOnUse">
      <feOffset dx="0" dy="0"/>
      <feGaussianBlur result="blur" stdDeviation="1"/>
      <feFlood flood-color="#231f20" flood-opacity=".75"/>
      <feComposite in2="blur" operator="in"/>
      <feComposite in="SourceGraphic"/>
    </filter>
    <linearGradient id="linear-gradient" x1="35.17" y1="69.83" x2="35.17" y2="5.7" gradientUnits="userSpaceOnUse">
      <stop offset="0" stop-color="#fdebf3"/>
      <stop offset=".11" stop-color="#f7eaf3"/>
      <stop offset=".23" stop-color="#f9f0f1"/>
      <stop offset=".35" stop-color="#fffef0"/>
      <stop offset=".48" stop-color="#fbfbf0"/>
      <stop offset=".6" stop-color="#eff2f1"/>
      <stop offset=".71" stop-color="#dce4f3"/>
      <stop offset=".71" stop-color="#dce4f4"/>
      <stop offset="1" stop-color="#fee9df"/>
    </linearGradient>
    <linearGradient id="linear-gradient-2" x1="32.47" x2="32.47" y2="5.7" xlink:href="#linear-gradient"/>
    <linearGradient id="linear-gradient-3" x1="23.88" y1="69.83" x2="23.88" y2="5.7" xlink:href="#linear-gradient"/>
    <linearGradient id="linear-gradient-4" x1="12.81" y1="69.83" x2="12.81" y2="5.7" xlink:href="#linear-gradient"/>
    <linearGradient id="linear-gradient-5" x1="10.4" y1="69.83" x2="10.4" y2="5.7" xlink:href="#linear-gradient"/>
    <linearGradient id="linear-gradient-6" x1="21.43" y1="69.83" x2="21.43" y2="5.7" xlink:href="#linear-gradient"/>
    <linearGradient id="linear-gradient-7" x1="19.23" y1="69.83" x2="19.23" y2="5.7" xlink:href="#linear-gradient"/>
    <linearGradient id="linear-gradient-8" x1="15.88" y1="69.83" x2="15.88" y2="5.7" xlink:href="#linear-gradient"/>
    <linearGradient id="linear-gradient-9" x1="7.12" y1="69.83" x2="7.12" y2="5.7" xlink:href="#linear-gradient"/>
    <linearGradient id="linear-gradient-10" x1="18.78" y1="69.83" x2="18.78" y2="5.7" xlink:href="#linear-gradient"/>
    <linearGradient id="linear-gradient-11" x1="4.42" y1="69.83" x2="4.42" y2="5.7" xlink:href="#linear-gradient"/>
    <linearGradient id="linear-gradient-12" x1="19.8" y1="69.83" x2="19.8" y2="5.7" xlink:href="#linear-gradient"/>
    <linearGradient id="linear-gradient-13" x1="19.8" y1="69.83" x2="19.8" y2="5.7" xlink:href="#linear-gradient"/>
    <linearGradient id="linear-gradient-14" x1="9.53" y1="69.83" x2="9.53" y2="5.7" xlink:href="#linear-gradient"/>
    <linearGradient id="linear-gradient-15" x1="15.08" y1="69.83" x2="15.08" y2="5.7" xlink:href="#linear-gradient"/>
    <linearGradient id="linear-gradient-16" x1="19.19" y1="69.83" x2="19.19" y2="5.7" xlink:href="#linear-gradient"/>
    <linearGradient id="linear-gradient-17" x1="25.27" y1="69.83" x2="25.27" y2="5.7" xlink:href="#linear-gradient"/>
    <linearGradient id="linear-gradient-18" x1="30.12" y1="69.83" x2="30.12" y2="5.7" xlink:href="#linear-gradient"/>
  </defs>
  <g id="Layer_1-2" data-name="Layer 1">
    <g id="Layer_1-2" data-name="Layer 1-2" class="cls-19">
      <g>
        <path class="cls-3" d="m39.59,9.22c0-.26-.21-.47-.47-.47-.08,0-.16.02-.23.06l-8.14,4.7,7.33,12.69,1.28-.74c.15-.08.24-.24.24-.4v-15.84h0Z"/>
        <path class="cls-11" d="m27.91,15.15c-.23.13-.3.41-.17.64l6.86,11.88c.13.23.41.3.64.17h0l2.03-1.17-7.33-12.69-2.03,1.17h0Z"/>
        <path class="cls-13" d="m24.52,18.55l-1.48-.23c-1.12-.17-2.26.05-3.24.61l-4.67,2.69c-.75.43-1.01,1.38-.58,2.13s1.38,1.01,2.13.58c0,0,.01,0,.02-.01l3.12-1.8c.22-.12.49-.05.62.15,1.27,1.8,3.56,2.55,5.65,1.86.18-.06.39-.01.51.14l4.16,4.96c.18-.3.34-.61.48-.93l2.16-1.24-6.08-10.53-2.8,1.62h0Z"/>
        <path class="cls-18" d="m14.84,31.58c-.56-.47-1.4-.4-1.86.16l-2.36,2.81c-.46.57-.38,1.4.18,1.86.56.46,1.38.38,1.84-.16l2.36-2.81c.47-.56.4-1.4-.16-1.86h0Z"/>
        <path class="cls-7" d="m12.25,31.15c.48-.55.41-1.39-.14-1.87-.55-.48-1.39-.41-1.87.14-.01.01-.02.02-.03.03l-1.7,2.02c-.46.57-.38,1.4.18,1.86.56.46,1.38.38,1.84-.16l1.7-2.02h0Z"/>
        <path class="cls-4" d="m21.91,37.28c-.05.42-.23.82-.5,1.14l-.89,1.07h0c.67.29,1.44-.03,1.73-.7.19-.46.11-.98-.21-1.36l-.12-.14h0Z"/>
        <path class="cls-12" d="m20.53,35.95c-.56-.47-1.4-.4-1.86.16l-.89,1.07c-.47.56-.4,1.4.16,1.86h0c.56.47,1.4.4,1.86-.16l.89-1.07c.47-.56.4-1.4-.16-1.86h0Z"/>
        <path class="cls-15" d="m17.58,33.89c-.56-.47-1.4-.4-1.86.16l-1.7,2.02c-.47.56-.4,1.4.16,1.86s1.4.4,1.86-.16l1.7-2.02c.47-.56.4-1.4-.16-1.87h0Z"/>
        <path class="cls-14" d="m11.68,15.15l-2.03-1.17-7.33,12.69,2.03,1.17c.23.13.51.05.64-.17l6.86-11.88c.13-.23.05-.51-.17-.64h0Z"/>
        <path class="cls-17" d="m26.08,25.52c-2.26.61-4.67-.16-6.16-1.97l-2.76,1.6c-1.19.7-2.72.3-3.41-.89-.7-1.19-.3-2.72.89-3.41.01,0,.02-.01.03-.02l4.6-2.65c-.89-.34-1.84-.45-2.78-.3l-2.06.31-2.15-1.24-6.08,10.53,2.16,1.24c.14.32.3.62.48.93l.67-.79c.8-.96,2.22-1.09,3.17-.29.55.46.85,1.14.81,1.85,1.2-.28,2.41.46,2.69,1.66.05.21.07.43.06.65,1.2-.28,2.41.46,2.69,1.66.04.15.06.32.06.47.25-.08.52-.13.79-.12-.15-.21-.11-.5.11-.65.19-.14.47-.11.62.07l3.05,3.63c.47.56,1.31.64,1.87.16s.64-1.31.16-1.87l-2.94-3.5-.11-.14c-.17-.2-.14-.49.06-.66s.49-.14.66.06l.14.16,3.58,4.26c.47.56,1.31.64,1.86.16s.64-1.31.16-1.86l-1.77-2.1-1.94-2.32c-.16-.2-.13-.5.08-.66.19-.15.47-.13.64.06l3.05,3.63c.47.56,1.31.64,1.86.16h0c.56-.47.64-1.31.16-1.86l-4.98-5.94h0Z"/>
        <path class="cls-6" d="m.7,8.81c-.23-.13-.51-.05-.64.17-.04.07-.06.15-.06.23v15.84c0,.17.09.32.24.4l1.28.74,7.33-12.69L.7,8.81Z"/>
        <path class="cls-1" d="m19.8,15.9c4.39,0,7.95-3.56,7.95-7.95S24.19,0,19.8,0s-7.95,3.56-7.95,7.95,3.56,7.95,7.95,7.95Zm-4.74-8.5c.55-.55,1.43-.55,1.99,0h0l1.21,1.21,4.3-4.3c.55-.55,1.43-.55,1.99,0h0c.55.55.55,1.43,0,1.99l-5.29,5.29c-.55.55-1.43.55-1.99,0h0l-2.21-2.2c-.55-.55-.55-1.43,0-1.99h0Z"/>
        <path class="cls-8" d="m17.92,10.93c.18.18.48.18.66,0h0l5.29-5.29c.18-.18.18-.48,0-.66h0c-.18-.18-.48-.18-.66,0h0l-4.63,4.63c-.18.18-.48.18-.66,0h0l-1.54-1.54c-.18-.18-.48-.17-.66.01-.17.18-.17.47,0,.65l2.21,2.21Z"/>
      </g>
      <g>
        <path class="cls-10" d="m10.24,48.82h-3.07v-1.29h.28v-1.43h-.4v-.71h.4v-1.2h-.28v-1.3h3.07c.3,0,.49.01.57.03.17.05.39.2.66.46s.43.44.48.56.07.32.07.62v2.54c0,.3-.02.51-.06.61-.05.14-.18.32-.4.55-.26.27-.47.44-.63.5-.12.04-.36.06-.7.06h0Zm-1.02-2.73v1.43h.48c.24,0,.39-.05.46-.15.05-.08.07-.24.07-.48v-2.04c0-.27-.03-.45-.09-.54s-.21-.13-.45-.13h-.48v1.2h.57v.71h-.57,0Z"/>
        <path class="cls-5" d="m13.64,42.88h2.9l.87,4.65h.29v1.29h-1.89l-.2-1.29h-1.06l-.21,1.29h-1.89v-1.29h.3l.89-4.65h0Zm.72,6.44h1.51v.68h-1.51v-.68Zm.34-2.98h.76l-.38-2.33-.38,2.33Z"/>
        <path class="cls-9" d="m18.02,42.89h2.35v1.3h-.28v3.35h.28v1.29h-2.35v-1.29h.29v-3.35h-.29v-1.3Z"/>
        <path class="cls-2" d="m26.1,46.59h1.36l-.13,2.24h-4.25v-1.29h.29v-3.35h-.29v-1.3h2.35v1.3h-.28v3.35h.56c.11,0,.18-.03.22-.08.02-.03.05-.12.07-.24l.1-.62Z"/>
        <path class="cls-16" d="m30.8,42.89h1.76v1.3h-.3l-1.24,2.69v.66h.29v1.29h-2.36v-1.29h.29v-.66l-1.26-2.69h-.3v-1.3h1.76l.7,2.56.67-2.56Zm-1.09-.97l1.6-.57.16.7-1.64.34-.12-.47Z"/>
      </g>
    </g>
  </g>
</svg>