<?xml version="1.0" encoding="UTF-8"?>
<svg id="Layer_2" data-name="Layer 2" xmlns="http://www.w3.org/2000/svg" xmlns:xlink="http://www.w3.org/1999/xlink" viewBox="0 0 40.89 50">
  <defs>
    <style>
      .cls-1 {
        fill: url(#linear-gradient);
      }

      .cls-1, .cls-2, .cls-3, .cls-4, .cls-5, .cls-6, .cls-7, .cls-8, .cls-9, .cls-10, .cls-11 {
        stroke-width: 0px;
      }

      .cls-2 {
        fill: url(#linear-gradient-6);
      }

      .cls-3 {
        fill: url(#linear-gradient-11);
      }

      .cls-4 {
        fill: url(#linear-gradient-5);
      }

      .cls-12 {
        filter: url(#outer-glow-1);
      }

      .cls-5 {
        fill: url(#linear-gradient-2);
      }

      .cls-6 {
        fill: url(#linear-gradient-7);
      }

      .cls-7 {
        fill: url(#linear-gradient-3);
      }

      .cls-8 {
        fill: url(#linear-gradient-9);
      }

      .cls-9 {
        fill: url(#linear-gradient-8);
      }

      .cls-10 {
        fill: url(#linear-gradient-10);
      }

      .cls-11 {
        fill: url(#linear-gradient-4);
      }
    </style>
    <filter id="outer-glow-1" filterUnits="userSpaceOnUse">
      <feOffset dx="0" dy="0"/>
      <feGaussianBlur result="blur" stdDeviation="1"/>
      <feFlood flood-color="#231f20" flood-opacity=".75"/>
      <feComposite in2="blur" operator="in"/>
      <feComposite in="SourceGraphic"/>
    </filter>
    <linearGradient id="linear-gradient" x1="35.5" y1="69.83" x2="35.5" y2="5.7" gradientUnits="userSpaceOnUse">
      <stop offset="0" stop-color="#fdebf3"/>
      <stop offset=".11" stop-color="#f7eaf3"/>
      <stop offset=".23" stop-color="#f9f0f1"/>
      <stop offset=".35" stop-color="#fffef0"/>
      <stop offset=".48" stop-color="#fbfbf0"/>
      <stop offset=".6" stop-color="#eff2f1"/>
      <stop offset=".71" stop-color="#dce4f3"/>
      <stop offset=".71" stop-color="#dce4f4"/>
      <stop offset="1" stop-color="#fee9df"/>
    </linearGradient>
    <linearGradient id="linear-gradient-2" x1="19.74" y1="69.83" x2="19.74" y2="5.7" xlink:href="#linear-gradient"/>
    <linearGradient id="linear-gradient-3" x1="20.9" y1="69.83" x2="20.9" y2="5.7" xlink:href="#linear-gradient"/>
    <linearGradient id="linear-gradient-4" x1="23.3" y1="69.83" x2="23.3" y2="5.7" xlink:href="#linear-gradient"/>
    <linearGradient id="linear-gradient-5" x1="4.51" y1="69.83" x2="4.51" y2="5.7" xlink:href="#linear-gradient"/>
    <linearGradient id="linear-gradient-6" x1="10.33" y1="69.83" x2="10.33" y2="5.7" xlink:href="#linear-gradient"/>
    <linearGradient id="linear-gradient-7" x1="15.69" y1="69.83" x2="15.69" y2="5.7" xlink:href="#linear-gradient"/>
    <linearGradient id="linear-gradient-8" x1="23.08" y1="69.83" x2="23.08" y2="5.7" xlink:href="#linear-gradient"/>
    <linearGradient id="linear-gradient-9" x1="27" y1="69.83" x2="27" y2="5.7" xlink:href="#linear-gradient"/>
    <linearGradient id="linear-gradient-10" x1="30.87" y1="69.83" x2="30.87" y2="5.7" xlink:href="#linear-gradient"/>
    <linearGradient id="linear-gradient-11" x1="36.45" y1="69.83" x2="36.45" y2="5.7" xlink:href="#linear-gradient"/>
  </defs>
  <g id="Layer_1-2" data-name="Layer 1">
    <g id="Layer_1-2" data-name="Layer 1-2" class="cls-12">
      <g>
        <path class="cls-1" d="m40.16,21.86h-5.71c-5.79.14-5.78,8.93,0,9.06h5.71c.4,0,.73-.33.73-.73v-7.6c0-.4-.32-.73-.72-.73h0Zm-4.65,5.26c-.4,0-.73-.32-.73-.73s.32-.73.73-.73c.4.01.72.35.71.75-.01.39-.32.71-.71.71h0Z"/>
        <path class="cls-5" d="m28.66,26.58c-.19-3.22,2.25-5.98,5.47-6.17.11,0,.22-.01.33-.01h5.02v-1.76c0-3.02-2.45-5.47-5.48-5.48H4.53c-.81-.01-1.58-.33-2.16-.89-1.19-1.22-1.18-3.17.03-4.36.57-.56,1.33-.88,2.13-.89h7.54l2.86-1.46H4.53c-2.5,0-4.53,2.03-4.53,4.52v24.06c0,3.03,2.46,5.48,5.48,5.48h28.51c3.03,0,5.48-2.46,5.48-5.48v-1.76h-5.02c-3.2,0-5.8-2.6-5.8-5.8h0Z"/>
        <path class="cls-7" d="m12.88,11.69l14.64-7.46c.36-.18.8-.04.98.31l3.63,7.15c1.2-.07,2.4,0,3.58.23L29.85.4c-.18-.36-.62-.5-.98-.32l-10.42,5.31c-3.46,1.76-8.84,4.52-12.36,6.3h6.8Z"/>
        <path class="cls-11" d="m16.09,11.69h14.42l-2.97-5.83-11.45,5.83Z"/>
      </g>
      <g>
        <path class="cls-4" d="m5.75,42.91h1.73v1.29h-.29v4.62h-2.55l-1.41-4.66.1,4.66h-1.78v-1.29h.29v-3.34h-.29v-1.29h3.01l1.23,4.22-.05-4.22Z"/>
        <path class="cls-2" d="m8.9,42.9h2.89l.87,4.63h.29v1.29h-1.89l-.2-1.29h-1.06l-.21,1.29h-1.89v-1.29h.3l.89-4.63h0Zm.72,6.42h1.5v.68h-1.5v-.68Zm.34-2.97h.75l-.38-2.33-.38,2.33Z"/>
        <path class="cls-6" d="m15.67,48.83h-2.41v-1.29h.29v-3.34h-.29v-1.29h3.17c.31,0,.52.03.64.08.15.05.34.2.59.42.21.19.35.36.4.5.04.09.06.26.06.5v.67c0,.21-.02.36-.04.44-.05.12-.17.28-.38.49-.17.16-.32.29-.47.39-.17.12-.44.18-.81.18h-1.09v.97h.34v1.29h0Zm-.34-4.69v1.17h.47c.24,0,.39-.06.48-.18.07-.09.11-.26.1-.5,0-.21-.07-.35-.21-.42-.08-.05-.23-.07-.44-.07h-.41Z"/>
        <path class="cls-9" d="m20.7,42.9h4.79l.06,2.17h-1.04l-.1-.59c-.03-.16-.06-.26-.1-.28s-.16-.04-.36-.04v3.39h.29v1.29h-2.35v-1.29h.29v-3.39c-.19,0-.3.01-.35.04s-.07.12-.1.27l-.12.61h-1.02l.1-2.17h0Z"/>
        <path class="cls-8" d="m25.83,42.91h2.35v1.29h-.28v3.34h.28v1.29h-2.35v-1.29h.29v-3.34h-.29v-1.29Z"/>
        <path class="cls-10" d="m28.61,42.91h4.25l.14,1.94h-1.41l-.07-.41c-.03-.11-.05-.18-.08-.22s-.1-.05-.22-.05h-.56v1.09h1.4v1.11h-1.4v1.23h.62c.11,0,.19-.02.23-.05s.07-.1.09-.21l.1-.52h1.45l-.14,2.02h-4.39v-1.29h.29v-3.34h-.29v-1.29h0Zm2.11-1.42l1.46.54-.17.51-1.3-.43-1.3.43-.17-.51,1.49-.54Zm-.47-1.26l1.57.56-.13.46-1.62-.35.18-.67Z"/>
        <path class="cls-3" d="m37.68,42.91h1.73v1.29h-.29v4.62h-2.55l-1.41-4.66.1,4.66h-1.78v-1.29h.29v-3.34h-.29v-1.29h3.01l1.23,4.22-.05-4.22Z"/>
      </g>
    </g>
  </g>
</svg>