<?xml version="1.0" encoding="UTF-8"?>
<svg id="Layer_2" data-name="Layer 2" xmlns="http://www.w3.org/2000/svg" xmlns:xlink="http://www.w3.org/1999/xlink" viewBox="0 0 37.86 50">
  <defs>
    <style>
      .cls-1 {
        fill: url(#linear-gradient-12);
      }

      .cls-1, .cls-2, .cls-3, .cls-4, .cls-5, .cls-6, .cls-7, .cls-8, .cls-9, .cls-10, .cls-11, .cls-12 {
        stroke-width: 0px;
      }

      .cls-2 {
        fill: url(#linear-gradient);
      }

      .cls-3 {
        fill: url(#linear-gradient-6);
      }

      .cls-4 {
        fill: url(#linear-gradient-11);
      }

      .cls-5 {
        fill: url(#linear-gradient-5);
      }

      .cls-13 {
        filter: url(#outer-glow-1);
      }

      .cls-6 {
        fill: url(#linear-gradient-2);
      }

      .cls-7 {
        fill: url(#linear-gradient-7);
      }

      .cls-8 {
        fill: url(#linear-gradient-3);
      }

      .cls-9 {
        fill: url(#linear-gradient-9);
      }

      .cls-10 {
        fill: url(#linear-gradient-8);
      }

      .cls-11 {
        fill: url(#linear-gradient-10);
      }

      .cls-12 {
        fill: url(#linear-gradient-4);
      }
    </style>
    <filter id="outer-glow-1" filterUnits="userSpaceOnUse">
      <feOffset dx="0" dy="0"/>
      <feGaussianBlur result="blur" stdDeviation="1"/>
      <feFlood flood-color="#231f20" flood-opacity=".75"/>
      <feComposite in2="blur" operator="in"/>
      <feComposite in="SourceGraphic"/>
    </filter>
    <linearGradient id="linear-gradient" x1="18.9" y1="69.83" x2="18.9" y2="5.7" gradientUnits="userSpaceOnUse">
      <stop offset="0" stop-color="#fdebf3"/>
      <stop offset=".11" stop-color="#f7eaf3"/>
      <stop offset=".23" stop-color="#f9f0f1"/>
      <stop offset=".35" stop-color="#fffef0"/>
      <stop offset=".48" stop-color="#fbfbf0"/>
      <stop offset=".6" stop-color="#eff2f1"/>
      <stop offset=".71" stop-color="#dce4f3"/>
      <stop offset=".71" stop-color="#dce4f4"/>
      <stop offset="1" stop-color="#fee9df"/>
    </linearGradient>
    <linearGradient id="linear-gradient-2" x1="18.85" y1="69.83" x2="18.85" y2="5.7" xlink:href="#linear-gradient"/>
    <linearGradient id="linear-gradient-3" x1="18.9" y1="69.83" x2="18.9" y2="5.7" xlink:href="#linear-gradient"/>
    <linearGradient id="linear-gradient-4" x1="20.59" y1="69.83" x2="20.59" y2="5.7" xlink:href="#linear-gradient"/>
    <linearGradient id="linear-gradient-5" x1="17.2" y1="69.83" x2="17.2" y2="5.7" xlink:href="#linear-gradient"/>
    <linearGradient id="linear-gradient-6" x1="2.67" y1="69.83" x2="2.67" y2="5.7" xlink:href="#linear-gradient"/>
    <linearGradient id="linear-gradient-7" x1="8.27" y1="69.83" x2="8.27" y2="5.7" xlink:href="#linear-gradient"/>
    <linearGradient id="linear-gradient-8" x1="13.63" y1="69.83" x2="13.63" y2="5.7" xlink:href="#linear-gradient"/>
    <linearGradient id="linear-gradient-9" x1="21.14" y1="69.83" x2="21.14" y2="5.7" xlink:href="#linear-gradient"/>
    <linearGradient id="linear-gradient-10" x1="25.16" y1="69.83" x2="25.16" y2="5.7" xlink:href="#linear-gradient"/>
    <linearGradient id="linear-gradient-11" x1="29.12" y1="69.83" x2="29.12" y2="5.7" xlink:href="#linear-gradient"/>
    <linearGradient id="linear-gradient-12" x1="34.83" y1="69.83" x2="34.83" y2="5.7" xlink:href="#linear-gradient"/>
  </defs>
  <g id="Layer_1-2" data-name="Layer 1">
    <g id="Layer_1-2" data-name="Layer 1-2" class="cls-13">
      <g>
        <path class="cls-2" d="m25.66,10.11h-13.53c-.51,0-.85.34-.85.85s.34.85.85.85h13.53c.51,0,.85-.34.85-.85s-.34-.85-.85-.85Z"/>
        <path class="cls-6" d="m29.55.13c-.17-.17-.51-.17-.85,0l-6.26,3.05-2.87-2.87c-.34-.34-.85-.34-1.19,0l-3.05,2.87L9.08.13c-.34-.17-.68-.17-1.01,0-.34.17-.17.68,0,1.01l3.38,6.77c0,.34.34.51.68.51h13.53c.34,0,.68-.17.68-.51l3.38-6.77c.17-.34.17-.68-.17-1.01h0Z"/>
        <path class="cls-8" d="m26.34,13.84c-.17-.17-.51-.34-.68-.34h-13.53c-.17,0-.51.17-.68.34-.34.34-8.63,9.14-8.63,14.04,0,6.94,7.28,12.69,16.08,12.69s16.08-5.75,16.08-12.69c0-4.91-8.29-13.71-8.63-14.04h-.01Zm-3.22,16.24c0,2.03-1.52,3.38-3.38,3.72v.85c0,.51-.34.85-.85.85s-.85-.34-.85-.85v-.85c-1.86-.34-3.22-1.52-3.38-3.05,0-.51.34-.85.85-.85s.85.34.85.85c0,.68.85,1.35,1.69,1.52v-3.38c-2.2-.51-3.38-1.69-3.38-3.22,0-1.69,1.52-3.05,3.38-3.38v-.85c0-.51.34-.85.85-.85s.85.34.85.85v.51c1.86.34,3.22,1.52,3.38,3.05,0,.51-.34.85-.85.85s-.85-.34-.85-.85c0-.68-.85-1.35-1.69-1.52v3.38c2.2.51,3.38,1.69,3.38,3.22Z"/>
        <path class="cls-12" d="m19.74,28.89v3.05c1.01-.17,1.69-.85,1.69-1.52s-.51-1.19-1.69-1.52Z"/>
        <path class="cls-5" d="m16.36,25.34c0,.68.51,1.19,1.69,1.52v-3.05c-1.01.17-1.69.85-1.69,1.52Z"/>
      </g>
      <g>
        <path class="cls-3" d="m2.12,49.99H0v-1.32h.29v-3.42h-.29v-1.32h3.23c.3,0,.51.02.62.06s.28.14.49.31c.18.15.33.29.45.42.1.11.16.21.18.29s.03.24.03.47v.43c0,.19-.01.33-.03.4s-.09.16-.19.25c-.16.14-.4.29-.71.43.4.19.67.34.79.46.09.08.14.16.16.23s.03.2.03.4v.6h.29v1.32h-2.16v-1.66c0-.27-.03-.45-.09-.53-.08-.11-.26-.16-.54-.16h-.43v2.35h0Zm0-4.74v1.21h.39c.24,0,.4-.04.49-.13s.14-.26.14-.5c0-.35-.14-.54-.44-.56-.03,0-.22-.01-.58-.01h0Z"/>
        <path class="cls-7" d="m8.78,43.94h2.12v1.32h-.29v2.92c0,.33-.02.55-.06.66-.06.17-.2.36-.44.59-.27.26-.48.42-.64.49-.11.04-.32.06-.6.06h-1.21c-.27,0-.45-.01-.53-.03-.15-.05-.34-.18-.59-.39-.21-.19-.36-.35-.45-.48-.08-.11-.13-.21-.14-.29s-.02-.26-.02-.53v-3h-.29v-1.32h2.13v4.27c0,.32.17.47.5.47.23,0,.37-.06.43-.2.05-.08.07-.25.07-.49v-4.06h.01Zm-.75-.9l1.64-.57.16.71-1.67.34-.12-.48Z"/>
        <path class="cls-10" d="m11.2,43.92h4.91l.06,2.22h-1.06l-.11-.61c-.03-.17-.06-.26-.1-.29s-.16-.04-.36-.04v3.47h.29v1.32h-2.4v-1.32h.29v-3.47c-.19,0-.31.01-.35.04s-.08.12-.1.28l-.12.62h-1.05l.11-2.22h0Z"/>
        <path class="cls-9" d="m18.7,43.92h4.91l.06,2.22h-1.06l-.11-.61c-.03-.17-.06-.26-.1-.29s-.16-.04-.36-.04v3.47h.29v1.32h-2.4v-1.32h.29v-3.47c-.19,0-.31.01-.35.04s-.08.12-.1.28l-.12.62h-1.05l.11-2.22h0Z"/>
        <path class="cls-11" d="m23.95,43.94h2.4v1.32h-.29v3.42h.29v1.32h-2.4v-1.32h.29v-3.42h-.29v-1.32Z"/>
        <path class="cls-4" d="m26.8,43.94h4.35l.14,1.98h-1.44l-.08-.42c-.03-.11-.05-.19-.09-.23s-.11-.05-.23-.05h-.57v1.12h1.43v1.13h-1.43v1.25h.63c.11,0,.19-.02.23-.05s.07-.11.09-.22l.11-.53h1.49l-.14,2.07h-4.49v-1.32h.29v-3.42h-.29v-1.32h0Zm2.16-1.46l1.49.56-.17.53-1.34-.45-1.34.45-.17-.53,1.52-.56Zm-.48-1.29l1.6.57-.13.47-1.66-.35.19-.69Z"/>
        <path class="cls-1" d="m36.09,43.94h1.77v1.32h-.29v4.74h-2.61l-1.44-4.77.1,4.77h-1.82v-1.32h.29v-3.42h-.29v-1.32h3.08l1.26,4.32-.05-4.32Z"/>
      </g>
    </g>
  </g>
</svg>