<?xml version="1.0" encoding="UTF-8"?>
<svg xmlns="http://www.w3.org/2000/svg" xmlns:xlink="http://www.w3.org/1999/xlink" viewBox="0 0 110.57 111.85">
  <defs>
    <style>
      .cls-1, .cls-2, .cls-3, .cls-4 {
        stroke-width: 0px;
      }

      .cls-1, .cls-5, .cls-6 {
        fill: #00aeef;
      }

      .cls-7 {
        isolation: isolate;
      }

      .cls-2 {
        fill: url(#_Áåçûìÿííûé_ãðàäèåíò_314);
      }

      .cls-3 {
        fill: url(#Turquoise);
      }

      .cls-3, .cls-8, .cls-4 {
        mix-blend-mode: screen;
      }

      .cls-3, .cls-4 {
        opacity: .54;
      }

      .cls-5 {
        font-family: SFCompactRounded-Regular, 'SF Compact Rounded';
        font-size: 16px;
      }

      .cls-6 {
        font-family: SFCompactRounded-Bold, 'SF Compact Rounded';
        font-size: 30px;
        font-weight: 700;
      }

      .cls-4 {
        fill: url(#Chrysoprase);
      }

      .cls-9 {
        fill: #ed1c24;
        stroke: #00aeef;
        stroke-miterlimit: 10;
      }
    </style>
    <radialGradient id="_Áåçûìÿííûé_ãðàäèåíò_314" data-name="Áåçûìÿííûé ãðàäèåíò 314" cx="55.4" cy="56.61" fx="55.4" fy="56.61" r="42.13" gradientUnits="userSpaceOnUse">
      <stop offset=".85" stop-color="#0a1728"/>
      <stop offset=".88" stop-color="#091d31"/>
      <stop offset=".93" stop-color="#072d49"/>
      <stop offset=".99" stop-color="#044772"/>
      <stop offset="1" stop-color="#044b77"/>
    </radialGradient>
    <linearGradient id="Chrysoprase" x1="11.74" y1="48.75" x2="109.44" y2="66.33" gradientUnits="userSpaceOnUse">
      <stop offset="0" stop-color="#00b8b5"/>
      <stop offset=".5" stop-color="#b7e2e0"/>
      <stop offset="1" stop-color="#00aea8"/>
    </linearGradient>
    <linearGradient id="Turquoise" x1="6.11" y1="47.74" x2="116.41" y2="67.58" gradientUnits="userSpaceOnUse">
      <stop offset="0" stop-color="#00bcc5"/>
      <stop offset=".49" stop-color="#9ed8d5"/>
      <stop offset="1" stop-color="#00617c"/>
    </linearGradient>
  </defs>
  <g class="cls-7">
    <g id="Layer_2" data-name="Layer 2">
      <g id="Layer_1-2" data-name="Layer 1">
        <g>
          <g>
            <path class="cls-2" d="m44.55,23.52l-2.28-6.96c2.53-.83,5.17-1.42,7.82-1.76l.92,7.27c-2.19.27-4.36.76-6.45,1.45Zm-.63.21l-2.42-6.92c-2.52.88-4.96,2.01-7.27,3.35l3.68,6.33c1.91-1.11,3.93-2.04,6.01-2.76Zm-6.57,3.1l-3.81-6.26c-2.27,1.38-4.43,2.99-6.41,4.79l4.92,5.43c1.64-1.48,3.42-2.81,5.3-3.96Zm20.92-4.92l.6-7.31c-2.64-.21-5.36-.18-8,.1l.78,7.29c2.18-.23,4.43-.26,6.62-.08ZM20.6,56.61c0-2.19.2-4.38.61-6.52l-7.2-1.36c-.49,2.58-.74,5.24-.74,7.88v.08l7.33.03v-.1Zm2.7-13.48l-6.76-2.84c-1.04,2.46-1.83,5.04-2.38,7.65l7.17,1.5c.45-2.16,1.11-4.28,1.97-6.31Zm3.51-6.37l-6.02-4.19c-1.53,2.19-2.85,4.54-3.93,6.98l6.7,2.97c.89-2.02,1.98-3.95,3.24-5.76Zm4.75-5.51l-5.02-5.34c-1.94,1.83-3.72,3.85-5.29,6.01l5.94,4.3c1.29-1.78,2.76-3.46,4.37-4.97Zm35.96-15c-2.55-.77-5.19-1.29-7.86-1.56l-.73,7.29c2.2.22,4.38.65,6.48,1.29l2.11-7.02Zm19.35,25.49l6.62-3.13c-1.14-2.41-2.52-4.72-4.1-6.88l-5.91,4.33c1.31,1.78,2.44,3.69,3.39,5.68Zm3.32,14.07l7.33-.16c-.06-2.68-.37-5.35-.93-7.95l-7.16,1.54c.46,2.15.73,4.36.77,6.57Zm-.92-7.21l7.14-1.68c-.61-2.6-1.48-5.15-2.58-7.59l-6.68,3.01c.9,2.01,1.62,4.12,2.12,6.26Zm-17.15-22.51l3.52-6.42c-2.34-1.29-4.82-2.35-7.36-3.17l-2.24,6.98c2.09.67,4.14,1.55,6.07,2.61Zm5.98,4.15l4.78-5.55c-2.03-1.75-4.23-3.3-6.53-4.63l-3.65,6.36c1.91,1.09,3.72,2.38,5.4,3.82Zm4.99,5.3l5.83-4.44c-1.61-2.12-3.44-4.1-5.43-5.88l-4.89,5.46c1.64,1.47,3.16,3.11,4.49,4.86Zm-39.9,61.42c2.55.77,5.19,1.3,7.85,1.57l.75-7.29c-2.2-.23-4.38-.66-6.48-1.3l-2.12,7.02Zm30.2-10.53l3.79,6.27c2.28-1.38,4.44-2.99,6.42-4.78l-4.91-5.44c-1.64,1.48-3.42,2.81-5.31,3.95Zm5.8-4.4l5.01,5.35c1.95-1.83,3.73-3.84,5.3-6l-5.93-4.31c-1.29,1.78-2.77,3.45-4.38,4.96Zm-12.37,7.48l2.4,6.92c2.52-.87,4.97-2,7.28-3.34l-3.67-6.34c-1.91,1.11-3.93,2.03-6.01,2.75Zm20.66-19.35l6.75,2.85c1.04-2.46,1.85-5.03,2.4-7.64l-7.17-1.52c-.46,2.15-1.12,4.27-1.98,6.31Zm-3.52,6.37l6.01,4.2c1.53-2.19,2.85-4.53,3.94-6.97l-6.69-2.98c-.9,2.01-1.99,3.95-3.26,5.76Zm-63.35-19.17l-7.33.15c.05,2.67.37,5.35.92,7.95l7.17-1.53c-.46-2.15-.71-4.36-.76-6.57Zm39.14,33.8l.9,7.27c2.65-.33,5.28-.91,7.82-1.74l-2.27-6.97c-2.09.68-4.26,1.17-6.45,1.44Zm30.47-34.69v.16c0,2.22-.21,4.43-.62,6.59l7.2,1.38c.5-2.61.75-5.29.75-7.97v-.16h-7.33Zm-62.54,21.19l-5.83,4.43c1.61,2.12,3.43,4.1,5.42,5.89l4.9-5.45c-1.64-1.48-3.15-3.11-4.48-4.87Zm24.79,13.65l-.61,7.3c1.18.1,2.37.15,3.56.15,1.48,0,2.98-.08,4.44-.23l-.76-7.29c-2.18.23-4.43.25-6.62.07Zm-30.95-26.73l-7.14,1.67c.61,2.6,1.47,5.15,2.56,7.59l6.69-3c-.9-2.01-1.61-4.12-2.11-6.26Zm2.39,6.86l-6.63,3.12c1.14,2.41,2.51,4.73,4.09,6.89l5.92-4.32c-1.3-1.78-2.44-3.7-3.38-5.69Zm8.75,11.52l-4.79,5.54c2.02,1.75,4.21,3.31,6.52,4.64l3.66-6.35c-1.9-1.1-3.72-2.39-5.39-3.84Zm5.97,4.16l-3.54,6.42c2.34,1.29,4.81,2.36,7.35,3.18l2.25-6.97c-2.09-.68-4.13-1.56-6.06-2.63Z"/>
            <g>
              <path class="cls-1" d="m66.99,2.72c13.88,3.07,24.86,9.1,34.53,21.76,1.58,2.04,3.65,5.48,4.65,7.41,1.79,3.69,1.3,2.58,2.9,6.54.75,1.86-2.12,3.07-2.85.97-1-2.9-1.39-4.23-3.25-8.03-7.19-14-18.59-23.84-35.98-28.66Z"/>
              <path class="cls-1" d="m2.09,70.81C-9.02,29.37,26.66.59,50.97.29,53.8.11,55.41,0,55.41,0c2.01-.13,2.18,2.92.16,3-8.6.34-15.09.79-26.08,6.21-4.96,2.91-9.14,5.49-14.1,10.79C3.24,32.98-2.53,51.29,2.09,70.81Z"/>
              <path class="cls-1" d="m57.05,111.8c-21.47.87-38.38-8.73-50.08-25.72-1.15-1.67,1.44-3.38,2.52-1.65,10.79,17.34,26.43,27.13,47.56,27.37Z"/>
              <path class="cls-1" d="m110.57,56.67c-.47,20.82-8.47,35.09-23.21,46.25-2.75,2.02-6.49,4.22-9.73,5.68-4.9,2-3.4,1.46-8.68,3.1-1.93.6-2.8-2.35-.84-2.89.41-.11,4.25-1.13,4.65-1.26,5.51-1.99,3.39-1.19,6.03-2.37,2.62-1.25.59-.12,4.82-2.49,17-9.9,25.73-26.56,26.97-46.02Z"/>
            </g>
            <g class="cls-8">
              <path class="cls-9" d="m33.68,78.25s-.31-.33-.88-.95c-.29-.31-.64-.69-1.05-1.14-.41-.45-.8-1.04-1.28-1.67-.24-.32-.49-.65-.75-1-.22-.37-.46-.76-.71-1.17-.24-.41-.5-.83-.76-1.27-.25-.45-.46-.94-.7-1.43-.23-.5-.49-1.01-.72-1.54-.2-.55-.4-1.12-.61-1.7-.47-1.14-.69-2.43-1.05-3.74-.49-2.66-.79-5.61-.54-8.72.28-3.1,1.01-6.34,2.32-9.48,1.28-3.16,3.23-6.16,5.64-8.8.31-.34.57-.67.92-1.01l.98-.9c.65-.6,1.3-1.22,2.06-1.75,1.43-1.15,3-2.09,4.59-2.97,6.48-3.44,14.17-4.26,20.89-2.82,3.38.68,6.51,1.97,9.22,3.58,1.41.74,2.59,1.73,3.81,2.58,1.08.99,2.26,1.93,3.16,2.91,3.85,4.04,5.85,8.33,6.89,11.38.52,1.53.82,2.77,1,3.62.16.85.25,1.31.25,1.31.1.5-.23.98-.73,1.08-.5.1-.98-.23-1.08-.73,0,0,0,0,0,0v-.05s-.08-.43-.23-1.23c-.16-.8-.42-1.98-.89-3.43-.47-1.45-1.16-3.18-2.18-5.06-1.02-1.86-2.4-3.88-4.16-5.8-.91-1.03-1.93-1.84-2.98-2.84-1.15-.83-2.26-1.8-3.6-2.52-2.56-1.58-5.54-2.86-8.77-3.56-6.42-1.48-13.86-.83-20.19,2.41-3.15,1.59-6.02,3.77-8.42,6.32-2.4,2.54-4.36,5.44-5.66,8.52-1.33,3.07-2.11,6.24-2.43,9.29-.3,3.06-.05,5.98.39,8.62.34,1.3.53,2.58.99,3.72.2.58.39,1.15.58,1.69.22.54.47,1.04.69,1.54.23.49.43.99.67,1.44.26.44.51.87.74,1.28.24.41.47.8.68,1.18.26.35.5.68.73,1,.47.63.85,1.22,1.25,1.68.41.46.75.85,1.03,1.16.56.63.86.97.86.97Z"/>
            </g>
            <path class="cls-4" d="m37.92,26.5l-3.68-6.33c2.31-1.34,4.76-2.47,7.27-3.35l2.42,6.92c-2.08.72-4.1,1.65-6.01,2.76Zm-.57.34l-3.81-6.26c-2.27,1.38-4.43,2.99-6.41,4.79l4.92,5.43c1.64-1.48,3.42-2.81,5.3-3.96Zm13.65-4.76l-.92-7.27c-2.65.33-5.28.93-7.82,1.76l2.28,6.96c2.09-.69,4.26-1.17,6.45-1.45Zm-27.7,21.05l-6.76-2.84c-1.04,2.46-1.83,5.04-2.38,7.65l7.17,1.5c.45-2.16,1.11-4.28,1.97-6.31Zm34.98-21.21l.6-7.31c-2.64-.21-5.36-.18-8,.1l.78,7.29c2.18-.23,4.43-.26,6.62-.08Zm-31.47,14.84l-6.02-4.19c-1.53,2.19-2.85,4.54-3.93,6.98l6.7,2.97c.89-2.02,1.98-3.95,3.24-5.76Zm63.39,19.05l7.33-.16c-.06-2.68-.37-5.35-.93-7.95l-7.16,1.54c.46,2.15.73,4.36.77,6.57Zm-.92-7.21l7.14-1.68c-.61-2.6-1.48-5.15-2.58-7.59l-6.68,3.01c.9,2.01,1.62,4.12,2.12,6.26Zm-2.4-6.86l6.62-3.13c-1.14-2.41-2.52-4.72-4.1-6.88l-5.91,4.33c1.31,1.78,2.44,3.69,3.39,5.68Zm-66.28,14.87c0-2.19.2-4.38.61-6.52l-7.2-1.36c-.49,2.58-.74,5.24-.74,7.88v.08l7.33.03v-.1Zm62.5-21.08l5.83-4.44c-1.61-2.12-3.44-4.1-5.43-5.88l-4.89,5.46c1.64,1.47,3.16,3.11,4.49,4.86Zm-15.57-19.28c-2.55-.77-5.19-1.29-7.86-1.56l-.73,7.29c2.2.22,4.38.65,6.48,1.29l2.11-7.02Zm4.6,9.83l3.52-6.42c-2.34-1.29-4.82-2.35-7.36-3.17l-2.24,6.98c2.09.67,4.14,1.55,6.07,2.61Zm5.98,4.15l4.78-5.55c-2.03-1.75-4.23-3.3-6.53-4.63l-3.65,6.36c1.91,1.09,3.72,2.38,5.4,3.82Zm-46.54,1.02l-5.02-5.34c-1.94,1.83-3.72,3.85-5.29,6.01l5.94,4.3c1.29-1.78,2.76-3.46,4.37-4.97Zm41.83,55.16l3.79,6.27c2.28-1.38,4.44-2.99,6.42-4.78l-4.91-5.44c-1.64,1.48-3.42,2.81-5.31,3.95Zm-52.79-29.07l-7.33.15c.05,2.67.37,5.35.92,7.95l7.17-1.53c-.46-2.15-.71-4.36-.76-6.57Zm58.59,24.67l5.01,5.35c1.95-1.83,3.73-3.84,5.3-6l-5.93-4.31c-1.29,1.78-2.77,3.45-4.38,4.96Zm-19.45,9.13l.9,7.27c2.65-.33,5.28-.91,7.82-1.74l-2.27-6.97c-2.09.68-4.26,1.17-6.45,1.44Zm24.22-14.63l6.01,4.2c1.53-2.19,2.85-4.53,3.94-6.97l-6.69-2.98c-.9,2.01-1.99,3.95-3.26,5.76Zm6.25-20.06v.16c0,2.22-.21,4.43-.62,6.59l7.2,1.38c.5-2.61.75-5.29.75-7.97v-.16h-7.33Zm-2.73,13.7l6.75,2.85c1.04-2.46,1.85-5.03,2.4-7.64l-7.17-1.52c-.46,2.15-1.12,4.27-1.98,6.31Zm-20.66,19.35l2.4,6.92c2.52-.87,4.97-2,7.28-3.34l-3.67-6.34c-1.91,1.11-3.93,2.03-6.01,2.75Zm-39.15-11.86l-5.83,4.43c1.61,2.12,3.43,4.1,5.42,5.89l4.9-5.45c-1.64-1.48-3.15-3.11-4.48-4.87Zm-3.77-6.22l-6.63,3.12c1.14,2.41,2.51,4.73,4.09,6.89l5.92-4.32c-1.3-1.78-2.44-3.7-3.38-5.69Zm-2.39-6.86l-7.14,1.67c.61,2.6,1.47,5.15,2.56,7.59l6.69-3c-.9-2.01-1.61-4.12-2.11-6.26Zm30.95,26.73l-.61,7.3c1.18.1,2.37.15,3.56.15,1.48,0,2.98-.08,4.44-.23l-.76-7.29c-2.18.23-4.43.25-6.62.07Zm-9.26,5.65c2.55.77,5.19,1.3,7.85,1.57l.75-7.29c-2.2-.23-4.38-.66-6.48-1.3l-2.12,7.02Zm-10.55-14l-4.79,5.54c2.02,1.75,4.21,3.31,6.52,4.64l3.66-6.35c-1.9-1.1-3.72-2.39-5.39-3.84Zm5.97,4.16l-3.54,6.42c2.34,1.29,4.81,2.36,7.35,3.18l2.25-6.97c-2.09-.68-4.13-1.56-6.06-2.63Z"/>
            <path class="cls-3" d="m35.67,22.62l-4.16-7.15c2.6-1.52,5.37-2.79,8.21-3.78l2.73,7.81c-2.35.82-4.62,1.87-6.78,3.12Zm-.64.38l-4.3-7.07c-2.57,1.56-5.01,3.38-7.24,5.4l5.55,6.13c1.85-1.67,3.86-3.18,5.99-4.47Zm15.4-5.38l-1.03-8.21c-2.99.38-5.96,1.04-8.82,1.98l2.58,7.86c2.36-.78,4.81-1.32,7.28-1.64Zm-31.27,23.77l-7.63-3.2c-1.17,2.78-2.07,5.68-2.69,8.63l8.1,1.7c.51-2.44,1.26-4.83,2.22-7.12Zm39.49-23.95l.68-8.25c-2.99-.24-6.05-.2-9.03.11l.88,8.23c2.46-.26,5-.3,7.47-.09Zm-35.53,16.75l-6.79-4.73c-1.72,2.47-3.22,5.13-4.44,7.88l7.56,3.35c1.01-2.27,2.24-4.46,3.66-6.5Zm71.57,21.5l8.27-.18c-.07-3.02-.42-6.04-1.06-8.98l-8.09,1.74c.52,2.42.82,4.92.87,7.42Zm-1.04-8.15l8.05-1.9c-.69-2.93-1.67-5.81-2.91-8.56l-7.55,3.4c1.02,2.27,1.83,4.65,2.4,7.06Zm-2.71-7.74l7.48-3.54c-1.29-2.72-2.85-5.33-4.63-7.77l-6.67,4.89c1.47,2.01,2.76,4.17,3.82,6.41ZM16.11,56.61c0-2.47.23-4.95.69-7.36l-8.13-1.54c-.55,2.91-.83,5.91-.83,8.9v.09s8.27.03,8.27.03v-.12Zm70.56-23.8l6.58-5.02c-1.83-2.39-3.89-4.63-6.13-6.64l-5.52,6.17c1.85,1.66,3.56,3.51,5.07,5.49Zm-17.58-21.76c-2.88-.86-5.87-1.46-8.87-1.76l-.83,8.23c2.48.25,4.94.74,7.32,1.45l2.38-7.93Zm5.19,11.1l3.98-7.26c-2.65-1.45-5.44-2.66-8.3-3.58l-2.53,7.88c2.36.76,4.67,1.75,6.85,2.95Zm6.75,4.68l5.4-6.27c-2.29-1.97-4.77-3.73-7.38-5.22l-4.12,7.17c2.15,1.24,4.2,2.69,6.09,4.32Zm-52.55,1.16l-5.67-6.03c-2.19,2.06-4.2,4.35-5.97,6.78l6.7,4.85c1.46-2.01,3.12-3.9,4.94-5.61Zm47.23,62.28l4.28,7.08c2.58-1.56,5.02-3.37,7.25-5.39l-5.54-6.15c-1.85,1.67-3.87,3.17-5.99,4.46ZM16.11,57.43l-8.27.17c.06,3.02.41,6.04,1.04,8.98l8.09-1.73c-.52-2.43-.81-4.92-.86-7.42Zm66.14,27.86l5.66,6.04c2.2-2.06,4.21-4.34,5.98-6.77l-6.69-4.87c-1.46,2.01-3.13,3.9-4.95,5.6Zm-21.96,10.3l1.02,8.21c2.99-.37,5.96-1.03,8.83-1.96l-2.56-7.87c-2.36.77-4.81,1.31-7.28,1.62Zm27.34-16.52l6.78,4.74c1.73-2.47,3.23-5.12,4.45-7.87l-7.56-3.37c-1.01,2.27-2.25,4.46-3.68,6.5Zm7.06-22.65v.17c0,2.5-.24,5-.7,7.44l8.13,1.56c.56-2.95.85-5.97.85-8.99v-.17h-8.27Zm-3.08,15.46l7.62,3.22c1.18-2.78,2.09-5.68,2.71-8.63l-8.09-1.71c-.51,2.43-1.27,4.83-2.24,7.12Zm-23.33,21.84l2.71,7.82c2.85-.99,5.61-2.25,8.22-3.77l-4.15-7.16c-2.16,1.25-4.44,2.3-6.78,3.11Zm-44.2-13.39l-6.59,5.01c1.82,2.4,3.88,4.63,6.12,6.65l5.53-6.15c-1.85-1.67-3.56-3.52-5.06-5.5Zm-4.26-7.02l-7.49,3.53c1.28,2.72,2.84,5.34,4.61,7.77l6.69-4.88c-1.47-2.01-2.75-4.17-3.81-6.42Zm-2.69-7.74l-8.06,1.88c.68,2.93,1.66,5.82,2.89,8.57l7.55-3.38c-1.02-2.27-1.82-4.65-2.38-7.07Zm34.94,30.18l-.69,8.25c1.33.11,2.68.17,4.02.17,1.67,0,3.36-.09,5.01-.26l-.86-8.23c-2.46.26-5,.29-7.48.08Zm-10.46,6.39c2.88.87,5.86,1.47,8.87,1.78l.84-8.23c-2.48-.25-4.94-.75-7.32-1.47l-2.4,7.92Zm-11.91-15.81l-5.42,6.26c2.28,1.97,4.76,3.74,7.37,5.24l4.13-7.17c-2.15-1.24-4.2-2.7-6.08-4.33Zm6.74,4.7l-4,7.24c2.64,1.46,5.44,2.67,8.3,3.59l2.55-7.88c-2.36-.76-4.67-1.76-6.85-2.96Z"/>
          </g>
          <text class="cls-6" transform="translate(40.43 64.77)"><tspan x="0" y="0">19</tspan></text>
          <text class="cls-5" transform="translate(40.14 81.89)"><tspan x="0" y="0">NHÀ</tspan></text>
        </g>
      </g>
    </g>
  </g>
</svg>